<svg width="40" height="40" viewBox="0 0 40 40" fill="none" xmlns="http://www.w3.org/2000/svg">
<g clip-path="url(#clip0)">
<path d="M38.5793 5.51789C37.7199 5.43953 36.9598 6.07273 36.8814 6.93211L36.6744 9.20313C33.162 3.68703 27.0648 0 20 0C12.3999 0 5.7022 4.33766 2.37736 10.848C1.98486 11.6165 2.2897 12.5577 3.05822 12.9502C3.82689 13.3427 4.76791 13.0379 5.16041 12.2693C7.97423 6.75961 13.6248 3.125 20 3.125C25.8107 3.125 31.0546 6.15086 34.0588 10.8913L31.831 9.30008C31.1287 8.79859 30.1528 8.96125 29.6513 9.66344C29.1499 10.3657 29.3125 11.3415 30.0147 11.843L36.7706 16.6681C37.7607 17.374 39.1264 16.7278 39.2347 15.5385L39.9934 7.21586C40.0718 6.35641 39.4387 5.59625 38.5793 5.51789Z" fill="#F2EDED"/>
<path d="M36.9417 27.0498C36.1731 26.6574 35.232 26.9622 34.8395 27.7307C32.0257 33.2404 26.3752 36.875 19.9999 36.875C14.1892 36.875 8.94531 33.8491 5.94109 29.1087L8.16898 30.6999C8.87124 31.2014 9.84702 31.0387 10.3486 30.3366C10.8501 29.6343 10.6874 28.6585 9.98523 28.1569L3.22937 23.3319C2.25132 22.6331 0.874602 23.2599 0.765227 24.4615L0.00655529 32.7841C-0.0718041 33.6435 0.561399 34.4037 1.4207 34.482C2.28116 34.5602 3.04031 33.9264 3.11859 33.0678L3.32562 30.7968C6.83796 36.313 12.9351 40 19.9999 40C27.6 40 34.2977 35.6623 37.6226 29.152C38.0151 28.3835 37.7102 27.4423 36.9417 27.0498Z" fill="#F2EDED"/>
</g>
<defs>
<clipPath id="clip0">
<rect width="40" height="40" fill="white"/>
</clipPath>
</defs>
</svg>
