<svg width="25" height="25" viewBox="0 0 25 25" fill="none" xmlns="http://www.w3.org/2000/svg">
<path d="M17.2643 8.61944L15.3073 8.54766L14.8831 20.1338L16.84 20.2053L17.2643 8.61944Z" fill="#EE0D0D"/>
<path d="M13.4792 8.58353H11.521V20.1697H13.4792V8.58353Z" fill="#EE0D0D"/>
<path d="M10.1166 20.1335L9.69229 8.5473L7.73535 8.61913L8.15967 20.2052L10.1166 20.1335Z" fill="#EE0D0D"/>
<path d="M0.848633 3.75327V5.71147H2.88911L4.50786 24.1067C4.55225 24.6122 4.97559 25 5.48306 25H19.484C19.9916 25 20.4152 24.612 20.4592 24.1064L22.078 5.71147H24.1515V3.75327H0.848633ZM18.5872 23.0418H6.37964L4.85483 5.71147H20.1124L18.5872 23.0418Z" fill="#EE0D0D"/>
<path d="M15.6984 0H9.30151C8.40171 0 7.66968 0.732031 7.66968 1.63184V4.73237H9.62788V1.9582H15.372V4.73237H17.3302V1.63184C17.3302 0.732031 16.5982 0 15.6984 0Z" fill="#EE0D0D"/>
</svg>
