<svg width="30" height="30" viewBox="0 0 30 30" fill="none" xmlns="http://www.w3.org/2000/svg">
<g clip-path="url(#clip0)">
<path d="M28.9345 4.13842C28.2899 4.07965 27.7198 4.55455 27.6611 5.19908L27.5058 6.90234C24.8715 2.76527 20.2986 0 15 0C9.29995 0 4.27665 3.25324 1.78302 8.13598C1.48864 8.71236 1.71728 9.41824 2.29366 9.71262C2.87017 10.007 3.57593 9.77842 3.8703 9.20197C5.98068 5.06971 10.2186 2.34375 15 2.34375C19.358 2.34375 23.291 4.61314 25.5441 8.16844L23.8732 6.97506C23.3465 6.59895 22.6146 6.72094 22.2385 7.24758C21.8624 7.77428 21.9844 8.50611 22.511 8.88229L27.5779 12.5011C28.3205 13.0305 29.3448 12.5459 29.426 11.6539L29.995 5.41189C30.0539 4.7673 29.579 4.19719 28.9345 4.13842Z" fill="#494FF2"/>
<path d="M27.7063 20.2874C27.1298 19.9931 26.424 20.2216 26.1296 20.798C24.0193 24.9303 19.7814 27.6562 14.9999 27.6562C10.6419 27.6562 6.70898 25.3869 4.45582 21.8316L6.12673 23.0249C6.65343 23.4011 7.38527 23.2791 7.76144 22.7524C8.13755 22.2257 8.01556 21.4939 7.48892 21.1177L2.42203 17.4989C1.68849 16.9748 0.655952 17.4449 0.57392 18.3461L0.00491647 24.5881C-0.0538531 25.2326 0.421049 25.8028 1.06552 25.8615C1.71087 25.9202 2.28023 25.4448 2.33894 24.8009L2.49421 23.0976C5.12847 27.2347 9.70136 30 14.9999 30C20.7 30 25.7233 26.7468 28.2169 21.864C28.5113 21.2876 28.2827 20.5817 27.7063 20.2874Z" fill="#494FF2"/>
</g>
<defs>
<clipPath id="clip0">
<rect width="30" height="30" fill="white"/>
</clipPath>
</defs>
</svg>
